<?xml version="1.0" encoding="iso-8859-1"?>
<!-- Generator: Adobe Illustrator 23.0.2, SVG Export Plug-In . SVG Version: 6.00 Build 0)  -->
<svg version="1.1" id="&#x56FE;&#x5C42;_1" xmlns="http://www.w3.org/2000/svg" xmlns:xlink="http://www.w3.org/1999/xlink" x="0px"
	 y="0px" viewBox="0 0 500 500" style="enable-background:new 0 0 500 500;" xml:space="preserve">
<g>
	<path style="fill:#3A59AF;" d="M229.358,375.579l-102.346,11.054c-5.44,0.498-10.255-3.508-10.753-8.948l-38.524-238.01
		c-0.498-5.44,3.508-10.255,8.948-10.753l138.255-12.455c5.44-0.498,10.255,3.508,10.753,8.948l2.615,239.411
		C238.805,370.266,234.799,375.081,229.358,375.579z"/>
	<g>
		<defs>
			<path id="XMLID_165_" d="M329.91,125.362h51.025c6.369,0,11.532,5.163,11.532,11.532v26.202c0,3.059,1.215,5.992,3.378,8.155
				l12.153,12.153c2.163,2.163,3.378,5.096,3.378,8.155v80.749c0,3.059-1.215,5.992-3.378,8.155l-9.856,9.856
				c-2.163,2.163-3.378,5.096-3.378,8.155v83.129c0,6.369-5.163,11.532-11.532,11.532H252.112c-6.369,0-11.532-5.163-11.532-11.532
				V136.894c0-6.369,5.163-11.532,11.532-11.532H329.91z"/>
		</defs>
		<use xlink:href="#XMLID_165_"  style="overflow:visible;fill:#FFFFFF;"/>
		<clipPath id="XMLID_2_">
			<use xlink:href="#XMLID_165_"  style="overflow:visible;"/>
		</clipPath>
		<rect x="207.445" y="105.315" style="clip-path:url(#XMLID_2_);fill:#FFD840;" width="231.146" height="41.513"/>
		<path style="opacity:0.15;clip-path:url(#XMLID_2_);fill:#D85555;" d="M287.093,132.111v27.555c0,3.643,1.447,7.136,4.023,9.712
			l11.57,11.57c2.576,2.576,4.023,6.069,4.023,9.712v82.15c0,3.643-1.447,7.136-4.023,9.712l-10.245,10.245
			c-2.576,2.576-4.023,6.069-4.023,9.712V379.4c0,7.585-1.818,13.734-9.403,13.734h-27.669c-7.585,0-13.734-6.149-13.734-13.734
			V130.922c0-7.877,6.611-14.139,14.476-13.714l14.951,1.19C274.325,118.791,287.093,124.814,287.093,132.111z"/>
	</g>
	<g>
		<defs>
			<path id="XMLID_162_" d="M220.346,125.362h51.025c6.369,0,11.532,5.163,11.532,11.532v26.202c0,3.059,1.215,5.992,3.378,8.155
				l12.153,12.153c2.163,2.163,3.378,5.096,3.378,8.155v80.749c0,3.059-1.215,5.992-3.378,8.155l-9.856,9.856
				c-2.163,2.163-3.378,5.096-3.378,8.155v83.129c0,6.369-5.163,11.532-11.532,11.532H142.548c-6.369,0-11.532-5.163-11.532-11.532
				V136.894c0-6.369,5.163-11.532,11.532-11.532H220.346z"/>
		</defs>
		<use xlink:href="#XMLID_162_"  style="overflow:visible;fill:#FFFFFF;"/>
		<clipPath id="XMLID_3_">
			<use xlink:href="#XMLID_162_"  style="overflow:visible;"/>
		</clipPath>
		<rect x="97.881" y="105.315" style="clip-path:url(#XMLID_3_);fill:#FF6666;" width="231.146" height="41.513"/>
		<path style="clip-path:url(#XMLID_3_);fill:#FF6666;" d="M272.211,175.295h-46.12c-1.221,0-2.211-0.99-2.211-2.211v-3.001
			c0-1.221,0.99-2.211,2.211-2.211h46.12c1.221,0,2.211,0.99,2.211,2.211v3.001C274.421,174.305,273.431,175.295,272.211,175.295z"
			/>
		<path style="clip-path:url(#XMLID_3_);fill:#FF6666;" d="M272.211,193.144h-46.12c-1.221,0-2.211-0.99-2.211-2.211v-3.001
			c0-1.221,0.99-2.211,2.211-2.211h46.12c1.221,0,2.211,0.99,2.211,2.211v3.001C274.421,192.154,273.431,193.144,272.211,193.144z"
			/>
		<path style="clip-path:url(#XMLID_3_);fill:#FF6666;" d="M272.211,210.992h-46.12c-1.221,0-2.211-0.99-2.211-2.211v-3.001
			c0-1.221,0.99-2.211,2.211-2.211h46.12c1.221,0,2.211,0.99,2.211,2.211v3.001C274.421,210.002,273.431,210.992,272.211,210.992z"
			/>
		<path style="opacity:0.15;clip-path:url(#XMLID_3_);fill:#D85555;" d="M235.433,393.364H104.529
			c-7.156,0-13.011-5.855-13.011-13.011V142.713c0-7.156,5.855-13.011,13.011-13.011h130.904c7.156,0,13.011,5.855,13.011,13.011
			v237.641C248.444,387.509,242.589,393.364,235.433,393.364z"/>
	</g>
	<path style="fill:#5A78EC;" d="M230.904,393.134H89.359c-7.81,0-14.141-6.331-14.141-14.141V147.169
		c0-7.81,6.331-14.141,14.141-14.141h141.545c7.81,0,14.141,6.331,14.141,14.141v231.824
		C245.045,386.803,238.714,393.134,230.904,393.134z"/>
	<path style="fill:#FFFFFF;" d="M93.981,378.98h-1.213c-0.69,0-1.249-0.559-1.249-1.249V155.872c0-0.69,0.559-1.249,1.249-1.249
		h1.213c0.69,0,1.249,0.559,1.249,1.249v221.859C95.23,378.421,94.671,378.98,93.981,378.98z"/>
	<path style="fill:#FFFFFF;" d="M198.643,249.516h-69.517c-3.349,0-6.063-2.715-6.063-6.063v-69.517
		c0-3.349,2.715-6.063,6.063-6.063h69.517c3.349,0,6.063,2.715,6.063,6.063v69.517C204.706,246.802,201.992,249.516,198.643,249.516
		z"/>
	<path style="fill:#5A78EC;" d="M195.175,189.432h-62.581c-0.872,0-1.579-0.707-1.579-1.579v-2.85c0-0.872,0.707-1.579,1.579-1.579
		h62.581c0.872,0,1.579,0.707,1.579,1.579v2.85C196.754,188.726,196.047,189.432,195.175,189.432z"/>
	<path style="fill:#5A78EC;" d="M195.175,210.992h-62.581c-0.872,0-1.579-0.707-1.579-1.579v-2.85c0-0.872,0.707-1.579,1.579-1.579
		h62.581c0.872,0,1.579,0.707,1.579,1.579v2.85C196.754,210.285,196.047,210.992,195.175,210.992z"/>
	<path style="fill:#5A78EC;" d="M195.175,232.551h-62.581c-0.872,0-1.579-0.707-1.579-1.579v-2.85c0-0.872,0.707-1.579,1.579-1.579
		h62.581c0.872,0,1.579,0.707,1.579,1.579v2.85C196.754,231.845,196.047,232.551,195.175,232.551z"/>
	<path style="fill:#FFD840;" d="M374.543,178.476H314.26c-1.112,0-2.021-0.909-2.021-2.021v-6.561c0-1.112,0.909-2.021,2.021-2.021
		h60.283c1.112,0,2.021,0.909,2.021,2.021v6.561C376.564,177.567,375.654,178.476,374.543,178.476z"/>
	<path style="fill:#FFD840;" d="M360.052,200.036H314.26c-1.112,0-2.021-0.909-2.021-2.021v-6.561c0-1.112,0.909-2.021,2.021-2.021
		h45.792c1.112,0,2.021,0.909,2.021,2.021v6.561C362.073,199.126,361.163,200.036,360.052,200.036z"/>
	<path style="fill:#FF6666;" d="M341.777,212.079l-23.355,23.355c-2.337,2.337-0.682,6.334,2.624,6.334h6.214
		c2.049,0,3.71,1.661,3.71,3.71v44.507c0,2.049,1.661,3.71,3.71,3.71h9.72h9.72c2.049,0,3.71-1.661,3.71-3.71v-44.507
		c0-2.049,1.661-3.71,3.71-3.71h6.214c3.306,0,4.961-3.997,2.624-6.334l-23.355-23.355
		C345.576,210.63,343.227,210.63,341.777,212.079z"/>
	<rect x="306.937" y="309.247" style="fill:#FF6666;" width="27.921" height="27.921"/>
	<rect x="306.937" y="345.827" style="fill:#FF6666;" width="55.136" height="13.784"/>
	<path style="fill:#232323;" d="M394.41,386.136h-77.082c-0.386,0-0.699-0.313-0.699-0.699c0-0.387,0.313-0.7,0.699-0.7h77.082
		c5.973,0,10.833-4.86,10.833-10.833v-83.129c0-3.267,1.272-6.339,3.583-8.649l9.856-9.856c2.046-2.046,3.173-4.767,3.173-7.66
		v-80.748c0-2.894-1.127-5.614-3.173-7.66l-12.153-12.153c-2.31-2.31-3.583-5.382-3.583-8.649v-26.202
		c0-5.974-4.86-10.833-10.833-10.833h-51.025c-0.386,0-0.699-0.313-0.699-0.7c0-0.387,0.313-0.7,0.699-0.7h51.025
		c6.745,0,12.232,5.487,12.232,12.232v26.202c0,2.894,1.127,5.614,3.173,7.66l12.153,12.153c2.31,2.31,3.583,5.382,3.583,8.65
		v80.748c0,3.267-1.272,6.339-3.583,8.65l-9.856,9.856c-2.046,2.046-3.173,4.766-3.173,7.66v83.129
		C406.642,380.648,401.155,386.136,394.41,386.136z"/>
	<path style="fill:#232323;" d="M391.85,267.976c-0.386,0-0.699-0.313-0.699-0.699v-85.09c0-0.387,0.313-0.7,0.699-0.7
		c0.386,0,0.7,0.313,0.7,0.7v85.09C392.549,267.663,392.236,267.976,391.85,267.976z"/>
	<path style="fill:#232323;" d="M283.61,277.783c-0.386,0-0.699-0.313-0.699-0.699v-98.608c0-0.387,0.313-0.7,0.699-0.7
		s0.699,0.313,0.699,0.7v98.608C284.31,277.471,283.997,277.783,283.61,277.783z"/>
	<path style="fill:#232323;" d="M238.773,386.136H104.286c-9.28,0-16.83-7.55-16.83-16.83V139.647c0-9.28,7.55-16.83,16.83-16.83
		h134.487c9.28,0,16.83,7.55,16.83,16.83v229.658C255.603,378.586,248.053,386.136,238.773,386.136z M104.286,124.217
		c-8.508,0-15.431,6.922-15.431,15.431v229.658c0,8.509,6.922,15.431,15.431,15.431h134.487c8.508,0,15.431-6.922,15.431-15.431
		V139.647c0-8.509-6.922-15.431-15.431-15.431H104.286z"/>
</g>
</svg>
